<svg xmlns="http://www.w3.org/2000/svg"  viewBox="0 0 40 40">
  <path id="Icon_awesome-download" data-name="Icon awesome-download" d="M16.875,0h6.25A1.871,1.871,0,0,1,25,1.875V15h6.852a1.56,1.56,0,0,1,1.1,2.664L21.07,29.555a1.514,1.514,0,0,1-2.133,0L7.039,17.664A1.56,1.56,0,0,1,8.141,15H15V1.875A1.871,1.871,0,0,1,16.875,0ZM40,29.375v8.75A1.87,1.87,0,0,1,38.125,40H1.875A1.87,1.87,0,0,1,0,38.125v-8.75A1.871,1.871,0,0,1,1.875,27.5H13.336l3.828,3.828a4,4,0,0,0,5.672,0L26.664,27.5H38.125A1.87,1.87,0,0,1,40,29.375ZM30.313,36.25a1.563,1.563,0,1,0-1.562,1.563A1.567,1.567,0,0,0,30.313,36.25Zm5,0a1.563,1.563,0,1,0-1.562,1.563A1.567,1.567,0,0,0,35.313,36.25Z" fill="#ff46cb"/>
</svg>
