<svg xmlns="http://www.w3.org/2000/svg" width="40.425" height="32.833" viewBox="0 0 40.425 32.833">
  <path id="Icon_awesome-twitter" data-name="Icon awesome-twitter" d="M36.27,11.563c.026.359.026.718.026,1.077,0,10.953-8.336,23.573-23.573,23.573A23.413,23.413,0,0,1,0,32.494a17.14,17.14,0,0,0,2,.1,16.593,16.593,0,0,0,10.286-3.54A8.3,8.3,0,0,1,4.54,23.311,10.448,10.448,0,0,0,6.1,23.44a8.763,8.763,0,0,0,2.18-.282,8.286,8.286,0,0,1-6.644-8.131v-.1a8.344,8.344,0,0,0,3.745,1.052A8.3,8.3,0,0,1,2.821,4.894,23.55,23.55,0,0,0,19.9,13.564a9.353,9.353,0,0,1-.205-1.9A8.293,8.293,0,0,1,34.038,6,16.312,16.312,0,0,0,39.3,4a8.263,8.263,0,0,1-3.642,4.566A16.609,16.609,0,0,0,40.425,7.28a17.81,17.81,0,0,1-4.155,4.284Z" transform="translate(0 -3.381)" fill="#ff46cb"/>
</svg>
