<svg xmlns="http://www.w3.org/2000/svg" width="39.681" height="38.69" viewBox="0 0 39.681 38.69">
  <path id="Icon_awesome-github" data-name="Icon awesome-github" d="M13.272,31.715c0,.16-.184.288-.416.288-.264.024-.448-.1-.448-.288,0-.16.184-.288.416-.288C13.064,31.4,13.272,31.531,13.272,31.715Zm-2.488-.36c-.056.16.1.344.344.392a.375.375,0,0,0,.5-.16c.048-.16-.1-.344-.344-.416A.411.411,0,0,0,10.784,31.355Zm3.536-.136c-.232.056-.392.208-.368.392.024.16.232.264.472.208s.392-.208.368-.368S14.552,31.2,14.32,31.219ZM19.585.563A19.184,19.184,0,0,0,0,20.083,20.057,20.057,0,0,0,13.56,39.22c1.024.184,1.384-.448,1.384-.968,0-.5-.024-3.232-.024-4.912,0,0-5.6,1.2-6.776-2.384,0,0-.912-2.328-2.224-2.928,0,0-1.832-1.256.128-1.232a4.223,4.223,0,0,1,3.088,2.064c1.752,3.088,4.688,2.2,5.832,1.672a4.446,4.446,0,0,1,1.28-2.7c-4.472-.5-8.984-1.144-8.984-8.84a6.063,6.063,0,0,1,1.888-4.712A7.559,7.559,0,0,1,9.36,8.851c1.672-.52,5.52,2.16,5.52,2.16a18.9,18.9,0,0,1,10.048,0s3.848-2.688,5.52-2.16a7.555,7.555,0,0,1,.208,5.432,6.219,6.219,0,0,1,2.064,4.712c0,7.72-4.712,8.336-9.184,8.84a4.731,4.731,0,0,1,1.36,3.712c0,2.7-.024,6.032-.024,6.688,0,.52.368,1.152,1.384.968A19.873,19.873,0,0,0,39.681,20.083C39.681,8.987,30.681.563,19.585.563ZM7.776,28.155c-.1.08-.08.264.056.416.128.128.312.184.416.08.1-.08.08-.264-.056-.416C8.064,28.107,7.88,28.051,7.776,28.155Zm-.864-.648c-.056.1.024.232.184.312a.238.238,0,0,0,.344-.056c.056-.1-.024-.232-.184-.312C7.1,27.4,6.968,27.427,6.912,27.507ZM9.5,30.355c-.128.1-.08.344.1.5.184.184.416.208.52.08.1-.1.056-.344-.1-.5C9.848,30.251,9.608,30.227,9.5,30.355Zm-.912-1.176c-.128.08-.128.288,0,.472s.344.264.448.184a.365.365,0,0,0,0-.5C8.928,29.155,8.72,29.075,8.592,29.179Z" transform="translate(0 -0.563)" fill="#ff46cb"/>
</svg>
