<svg xmlns="http://www.w3.org/2000/svg"  viewBox="0 0 522.829 440.968">
  <g id="Square_Design" data-name="Square Design" transform="matrix(0.988, 0, 0.022, 0.99, 9.946, -4.312)">
    <rect id="Rectangle_10" data-name="Rectangle 10" width="88" height="86" transform="translate(174.462 88)" fill="#fff"/>
    <rect id="Rectangle_15" data-name="Rectangle 15" width="77" height="91" transform="translate(118.462 187)" fill="#fff"/>
    <rect id="Rectangle_11" data-name="Rectangle 11" width="88" height="88" transform="translate(174.462 262)" fill="#fff"/>
    <path id="Path_1" data-name="Path 1" d="M0,0H88.755V88.755H0Z" transform="translate(174.052 174.052)" fill="#5d00ff"/>
    <path id="Rectangle_34" data-name="Rectangle 34" d="M22,0H87a0,0,0,0,1,0,0V89a0,0,0,0,1,0,0H26A26,26,0,0,1,0,63V22A22,22,0,0,1,22,0Z" transform="translate(0.462 174)" fill="#5d00ff"/>
    <path id="Rectangle_33" data-name="Rectangle 33" d="M22,0H88a0,0,0,0,1,0,0V88a0,0,0,0,1,0,0H0a0,0,0,0,1,0,0V22A22,22,0,0,1,22,0Z" transform="translate(174.462)" fill="#5d00ff"/>
    <path id="Rectangle_30" data-name="Rectangle 30" d="M0,0H88a0,0,0,0,1,0,0V87a0,0,0,0,1,0,0H22A22,22,0,0,1,0,65V0A0,0,0,0,1,0,0Z" transform="translate(174.462 350)" fill="#5d00ff"/>
    <rect id="Rectangle_27" data-name="Rectangle 27" width="88" height="87" transform="translate(262.462 263)" fill="#5d00ff"/>
    <rect id="Rectangle_26" data-name="Rectangle 26" width="88" height="86" transform="translate(262.462 88)" fill="#5d00ff"/>
    <path id="Rectangle_25" data-name="Rectangle 25" d="M0,0H87a0,0,0,0,1,0,0V87a0,0,0,0,1,0,0H22A22,22,0,0,1,0,65V0A0,0,0,0,1,0,0Z" transform="translate(87.462 263)" fill="#5d00ff"/>
    <path id="Rectangle_24" data-name="Rectangle 24" d="M22,0H87a0,0,0,0,1,0,0V86a0,0,0,0,1,0,0H0a0,0,0,0,1,0,0V22A22,22,0,0,1,22,0Z" transform="translate(87.462 88)" fill="#5d00ff"/>
    <rect id="Rectangle_22" data-name="Rectangle 22" width="88" height="89" transform="translate(262.462 174)" fill="#fff"/>
    <path id="Rectangle_35" data-name="Rectangle 35" d="M0,0H62A26,26,0,0,1,88,26V67A22,22,0,0,1,66,89H0a0,0,0,0,1,0,0V0A0,0,0,0,1,0,0Z" transform="translate(436.462 174)" fill="#fff"/>
    <path id="Rectangle_31" data-name="Rectangle 31" d="M0,0H88a0,0,0,0,1,0,0V65A22,22,0,0,1,66,87H0a0,0,0,0,1,0,0V0A0,0,0,0,1,0,0Z" transform="translate(262.462 350)" fill="#fff"/>
    <path id="Rectangle_32" data-name="Rectangle 32" d="M0,0H66A22,22,0,0,1,88,22V88a0,0,0,0,1,0,0H0a0,0,0,0,1,0,0V0A0,0,0,0,1,0,0Z" transform="translate(262.462)" fill="#fff"/>
    <path id="Rectangle_28" data-name="Rectangle 28" d="M0,0H86a0,0,0,0,1,0,0V65A22,22,0,0,1,64,87H0a0,0,0,0,1,0,0V0A0,0,0,0,1,0,0Z" transform="translate(350.462 263)" fill="#fff"/>
    <path id="Rectangle_29" data-name="Rectangle 29" d="M0,0H64A22,22,0,0,1,86,22V86a0,0,0,0,1,0,0H0a0,0,0,0,1,0,0V0A0,0,0,0,1,0,0Z" transform="translate(350.462 88)" fill="#fff"/>
    <rect id="Rectangle_23" data-name="Rectangle 23" width="87" height="89" transform="translate(87.462 174)" fill="#fff"/>
  </g>
</svg>
