<svg xmlns="http://www.w3.org/2000/svg" width="66.906" height="66.909" viewBox="0 0 66.906 66.909">
  <path id="Icon_awesome-tools" data-name="Icon awesome-tools" d="M65.481,51.706,50.18,36.4a9.7,9.7,0,0,0-11.159-1.816L25.092,20.659V12.544L8.366,0,0,8.363,12.547,25.089h8.115L34.591,39.018a9.723,9.723,0,0,0,1.816,11.159l15.3,15.3a4.858,4.858,0,0,0,6.886,0l6.886-6.886a4.882,4.882,0,0,0,0-6.886ZM43.346,29.4a13.748,13.748,0,0,1,9.787,4.051l2.535,2.535a18.5,18.5,0,0,0,5.723-3.855,18.792,18.792,0,0,0,4.952-17.863,1.564,1.564,0,0,0-2.626-.719L54,23.272,45.123,21.8l-1.477-8.872L53.368,3.2a1.578,1.578,0,0,0-.745-2.64A18.823,18.823,0,0,0,34.774,5.514a18.517,18.517,0,0,0-5.384,13.537L40.119,29.78a14.235,14.235,0,0,1,3.228-.379ZM29.77,40.116l-7.409-7.409L2.447,52.634A8.362,8.362,0,0,0,14.272,64.459L30.423,48.308a14.032,14.032,0,0,1-.653-8.193Zm-21.4,21.56A3.136,3.136,0,1,1,11.5,58.54,3.145,3.145,0,0,1,8.366,61.676Z" transform="translate(0.004)" fill="#5d00ff"/>
</svg>
