<svg xmlns="http://www.w3.org/2000/svg"  viewBox="0 0 331.201 382.895">
  <g id="SquareFootorDesign" transform="matrix(0.067, 0.954, -0.977, 0.002, 316.801, -12.131)">
    <rect id="Rectangle_10" data-name="Rectangle 10" width="66.439" height="64.929" transform="translate(131.83 66.439)" fill="#fff"/>
    <rect id="Rectangle_15" data-name="Rectangle 15" width="58.134" height="68.704" transform="translate(89.551 141.182)" fill="#fff"/>
    <rect id="Rectangle_11" data-name="Rectangle 11" width="66.439" height="66.439" transform="translate(131.83 197.806)" fill="#fff"/>
    <path id="Path_1" data-name="Path 1" d="M0,0H67.009V67.009H0Z" transform="translate(131.52 131.407)" fill="#5d00ff"/>
    <path id="Rectangle_34" data-name="Rectangle 34" d="M22,0H65.684a0,0,0,0,1,0,0V67.194a0,0,0,0,1,0,0H26a26,26,0,0,1-26-26V22A22,22,0,0,1,22,0Z" transform="translate(0.462 131.368)" fill="#5d00ff"/>
    <path id="Rectangle_33" data-name="Rectangle 33" d="M22,0H66.439a0,0,0,0,1,0,0V66.439a0,0,0,0,1,0,0H0a0,0,0,0,1,0,0V22A22,22,0,0,1,22,0Z" transform="translate(131.83)" fill="#5d00ff"/>
    <path id="Rectangle_30" data-name="Rectangle 30" d="M0,0H66.439a0,0,0,0,1,0,0V65.684a0,0,0,0,1,0,0H22a22,22,0,0,1-22-22V0A0,0,0,0,1,0,0Z" transform="translate(131.83 264.245)" fill="#5d00ff"/>
    <rect id="Rectangle_27" data-name="Rectangle 27" width="66.439" height="65.684" transform="translate(198.269 198.561)" fill="#5d00ff"/>
    <rect id="Rectangle_26" data-name="Rectangle 26" width="66.439" height="64.929" transform="translate(198.269 66.439)" fill="#5d00ff"/>
    <path id="Rectangle_25" data-name="Rectangle 25" d="M0,0H65.684a0,0,0,0,1,0,0V65.684a0,0,0,0,1,0,0H22a22,22,0,0,1-22-22V0A0,0,0,0,1,0,0Z" transform="translate(66.146 198.561)" fill="#5d00ff"/>
    <path id="Rectangle_24" data-name="Rectangle 24" d="M22,0H65.684a0,0,0,0,1,0,0V64.929a0,0,0,0,1,0,0H0a0,0,0,0,1,0,0V22A22,22,0,0,1,22,0Z" transform="translate(66.146 66.439)" fill="#5d00ff"/>
    <rect id="Rectangle_22" data-name="Rectangle 22" width="66.439" height="67.194" transform="translate(198.269 131.368)" fill="#fff"/>
    <path id="Rectangle_35" data-name="Rectangle 35" d="M0,0H40.439a26,26,0,0,1,26,26V45.194a22,22,0,0,1-22,22H0a0,0,0,0,1,0,0V0A0,0,0,0,1,0,0Z" transform="translate(329.636 131.368)" fill="#fff"/>
    <path id="Rectangle_31" data-name="Rectangle 31" d="M0,0H66.439a0,0,0,0,1,0,0V43.684a22,22,0,0,1-22,22H0a0,0,0,0,1,0,0V0A0,0,0,0,1,0,0Z" transform="translate(198.269 264.245)" fill="#fff"/>
    <path id="Rectangle_32" data-name="Rectangle 32" d="M0,0H44.439a22,22,0,0,1,22,22V66.439a0,0,0,0,1,0,0H0a0,0,0,0,1,0,0V0A0,0,0,0,1,0,0Z" transform="translate(198.269)" fill="#fff"/>
    <path id="Rectangle_28" data-name="Rectangle 28" d="M0,0H64.929a0,0,0,0,1,0,0V43.684a22,22,0,0,1-22,22H0a0,0,0,0,1,0,0V0A0,0,0,0,1,0,0Z" transform="translate(264.707 198.561)" fill="#fff"/>
    <path id="Rectangle_29" data-name="Rectangle 29" d="M0,0H42.929a22,22,0,0,1,22,22V64.929a0,0,0,0,1,0,0H0a0,0,0,0,1,0,0V0A0,0,0,0,1,0,0Z" transform="translate(264.707 66.439)" fill="#fff"/>
    <rect id="Rectangle_23" data-name="Rectangle 23" width="65.684" height="67.194" transform="translate(66.146 131.368)" fill="#fff"/>
  </g>
</svg>
